<svg width="230" height="56" viewBox="0 0 230 56" fill="none" xmlns="http://www.w3.org/2000/svg">
<path fill-rule="evenodd" clip-rule="evenodd" d="M83.4066 2.95066C88.6455 6.02296 93.4852 9.09525 95.8801 10.5582C100.62 13.533 104.861 17.1417 109.351 20.7505H113.143C103.514 13.7768 92.188 5.38899 83.4066 2.95066ZM127.164 32.9909C129.658 34.4539 132.103 35.8681 134.598 37.136H138.19C134.847 35.2341 131.355 33.0884 127.712 30.7476C127.463 31.284 127.313 31.8692 127.313 32.5032L127.164 32.9909ZM16 16.0689C16.6985 13.1916 18.1953 10.5582 20.5403 8.94895C33.4629 0.170968 70.4342 1.39013 93.6848 21.0431H98.8738C93.136 16.8004 86.4502 12.4601 79.3153 9.09525C67.9395 3.73093 55.516 1 46.8344 1C36.7559 1 20.9894 1.09753 16.3493 13.5818C16.0998 14.167 16 15.0935 16 16.0689ZM113.842 36.7947H119.33C118.133 36.0144 116.885 35.2341 115.688 34.4051L113.842 36.7947ZM121.526 43.1831C132.802 49.7178 145.425 54.4969 157.948 55.7161C170.471 56.9353 183.494 54.2531 194.421 47.1819C195.818 46.3041 196.965 45.3776 198.013 44.451H197.464V44.1096C190.978 50.3518 175.86 53.0339 156.052 49.9129C150.115 48.9863 144.277 47.6208 138.589 45.7677C146.273 49.0351 155.703 52.1074 166.131 52.9364C170.122 53.229 172.517 53.1802 172.268 53.3265C171.769 53.7167 154.156 54.1556 146.522 51.766C140.136 49.7666 133.5 46.8406 127.912 43.817C126.066 43.2806 124.519 42.5491 123.022 41.3787L121.526 43.1831ZM199.659 42.7442C204.848 36.7459 203.451 30.1624 199.16 24.3592V29.821C201.605 34.5026 201.456 38.6478 199.16 42.0615V42.7442H199.659ZM196.416 21.0431C189.98 14.3133 180.35 9.09525 174.313 7.77855C173.565 7.63225 173.116 7.58349 173.216 7.68102C173.615 7.92485 175.261 8.51005 176.808 9.29032C183.693 12.704 188.683 15.63 193.922 21.0918H196.416V21.0431ZM195.568 22.7499C195.868 23.3839 195.967 24.0178 196.167 24.8469V22.7499H195.568Z" fill="#A0CAE2"/>
<path fill-rule="evenodd" clip-rule="evenodd" d="M74.8518 36.0492C74.8518 35.7049 74.9012 35.459 75 35.1639C75.0494 35.0164 75.0988 34.918 75.1975 34.7705C75.1975 34.7213 75.2469 34.7213 75.2469 34.6721C75.2469 34.623 75.2963 34.6229 75.2963 34.5738C75.2963 34.5246 75.3457 34.5246 75.3457 34.4754C75.4444 34.377 75.4444 34.3279 75.5432 34.2787C75.5432 34.2787 75.5432 34.2787 75.5926 34.2295C75.6914 34.1311 75.8889 34.0328 75.9877 33.9836L76.1358 33.8852C76.3333 33.7869 76.6296 33.6885 76.8272 33.6885C77.2222 33.6393 77.716 33.6885 78.1111 33.8852C78.1605 33.9344 78.2593 33.9344 78.3086 33.9836C78.4074 34.0328 78.5556 34.1311 78.6543 34.2295C78.6543 34.2295 78.6543 34.2295 78.7037 34.2787L78.8025 34.377C78.8518 34.4262 78.9012 34.4754 78.9506 34.5246C78.9506 34.5738 79 34.5738 79 34.623C79.3457 35.0656 79.4938 35.5082 79.4938 36.0492C79.4938 36.3934 79.3951 36.7377 79.2963 36.9836C79.2469 37.082 79.1481 37.2787 79.0988 37.3279C79.0494 37.4262 79 37.4754 78.9012 37.5738L78.8519 37.6721C78.8025 37.7213 78.7037 37.8197 78.6049 37.8689C78.5062 37.9672 78.4074 38.0164 78.2593 38.1148C78.2099 38.1148 78.2099 38.1639 78.1605 38.1639L78.0617 38.2131C78.0123 38.2131 78.0123 38.2131 77.963 38.2623C77.716 38.3607 77.4198 38.4098 77.1728 38.4098C76.7284 38.4098 76.3827 38.2623 76.037 38.1148L75.7407 37.918C75.7407 37.918 75.7407 37.918 75.6914 37.8689C75.5926 37.7705 75.4938 37.6721 75.3951 37.5738C75.2469 37.4262 75.1481 37.2295 75.0494 37.0328C74.9506 36.7377 74.8518 36.3934 74.8518 36.0492ZM78.3086 42H78.2099H76.0864C76.0864 41.9508 76.0864 41.9508 76.0864 41.9016L75.8889 40.7213C75.8889 40.6721 75.8889 40.6721 75.8889 40.6229C75.8889 40.6229 75.8395 40.6229 75.7901 40.6229L75.5926 40.5738C75.5432 40.5738 75.4938 40.5246 75.4444 40.5246C75.3951 40.5246 75.3457 40.4754 75.2963 40.4754C75.2469 40.4754 75.1975 40.4262 75.1481 40.4262L74.7531 40.2295C74.7037 40.2787 74.6543 40.2787 74.6049 40.3279L74.1111 40.6721L74.0617 40.7213C74.0123 40.7705 73.716 40.9672 73.6173 41.0164L72.037 39.4426L72.0864 39.3934L72.1358 39.3443C72.2346 39.1967 72.3333 39.0984 72.3827 38.9508L72.7778 38.4098C72.7778 38.4098 72.7778 38.4098 72.7778 38.3607C72.8272 38.3115 72.8272 38.3115 72.7778 38.2623C72.7778 38.2131 72.7778 38.2131 72.7284 38.2131L72.5802 37.8689C72.5309 37.7705 72.3827 37.4262 72.3827 37.3279L71 37.082V34.8689C71.0494 34.8689 71.7407 34.7705 71.8395 34.7213C71.9383 34.7213 72.2839 34.6721 72.3333 34.623C72.3333 34.623 72.3333 34.5738 72.3333 34.5246C72.4321 34.2295 72.5309 33.9344 72.679 33.6885C72.679 33.6393 72.7284 33.5902 72.7284 33.5902C72.679 33.541 72.679 33.4918 72.6296 33.4426C72.6296 33.3934 72.5802 33.3934 72.5802 33.3934L72.5309 33.3443L72.1358 32.8033C72.1358 32.7541 72.0864 32.7541 72.0864 32.7541C72.037 32.7049 71.9383 32.5574 71.9383 32.5574C71.9383 32.5082 71.9877 32.459 72.037 32.459L72.2346 32.2623C72.284 32.2131 72.2839 32.2131 72.3333 32.1639L72.6296 31.8689L72.679 31.8197C72.7778 31.7213 72.9259 31.5738 73.0247 31.4754C73.1235 31.4262 73.4691 31.0328 73.5185 30.9836C73.5679 30.9836 73.5679 31.0328 73.5679 31.0328L74.1111 31.377C74.1111 31.377 74.1111 31.377 74.1605 31.4262L74.6543 31.7705C74.7037 31.7705 74.8519 31.6721 74.9012 31.6721C74.9506 31.6721 75 31.6229 75 31.6229C75.0494 31.6229 75.0988 31.5738 75.1481 31.5738C75.2469 31.5246 75.5926 31.377 75.6914 31.377L75.9383 30H78.1605C78.1605 30.0492 78.1605 30.0492 78.1605 30.0984C78.2099 30.2459 78.358 31.2787 78.358 31.3279C78.4074 31.3279 78.4074 31.3279 78.4568 31.3279C78.5062 31.3279 78.5062 31.3279 78.5062 31.3279C78.7037 31.377 78.8518 31.4754 79.0494 31.5246C79.0988 31.5738 79.3951 31.6721 79.3951 31.7213C79.4444 31.6721 79.4938 31.6721 79.5432 31.6229L79.8395 31.4262C79.8889 31.4262 79.8889 31.377 79.8889 31.377C80.037 31.2787 80.2346 31.1311 80.3827 31.0328C80.5309 30.9344 80.5309 30.9344 80.5802 30.9836C80.6296 31.0328 80.679 31.082 80.7284 31.1311L81.0247 31.4262C81.1235 31.5246 81.2222 31.623 81.2716 31.6721C81.3704 31.8197 81.5185 31.918 81.6173 32.0656L81.6667 32.1148C81.7161 32.1639 82.0123 32.459 82.0617 32.5082C82.0617 32.5574 81.8642 32.7541 81.8642 32.8033C81.7654 32.9508 81.5679 33.1967 81.4691 33.3443C81.4198 33.3934 81.4198 33.4426 81.3704 33.4918C81.321 33.541 81.321 33.5902 81.2716 33.6393C81.2716 33.6885 81.321 33.7377 81.321 33.7377L81.4198 33.9344C81.4198 33.9344 81.4198 33.9836 81.4691 33.9836L81.5679 34.2295C81.5679 34.2787 81.6173 34.3279 81.6173 34.377C81.6173 34.4262 81.7161 34.623 81.7161 34.6721C81.7654 34.6721 81.8148 34.6721 81.8642 34.7213L82.7037 34.8689C82.7531 34.8689 82.8025 34.8689 82.8519 34.918C82.9012 34.918 82.9506 34.9672 83 34.9672V37.1803C82.9506 37.1803 82.7531 37.2295 82.6543 37.2295C82.5556 37.2295 81.7161 37.377 81.6667 37.377C81.6667 37.4262 81.6667 37.4754 81.6173 37.5246C81.6173 37.5738 81.5679 37.6229 81.5679 37.6721C81.5185 37.8689 81.4198 38.0164 81.3704 38.1639C81.3704 38.2131 81.321 38.2623 81.321 38.2623C81.321 38.2623 81.321 38.3115 81.2716 38.3115C81.2716 38.3115 81.2716 38.3607 81.2222 38.3607L81.4691 38.7049C81.5679 38.8525 81.7161 39.0492 81.8148 39.1967L82.0123 39.4918L80.4321 41.0656C80.3827 41.0164 80.3333 41.0164 80.2839 40.9672C80.0864 40.8197 79.8889 40.6721 79.642 40.5246L79.2469 40.2787C79.1975 40.2787 79.1975 40.2787 79.1482 40.2787L79 40.3279C79 40.3279 78.9506 40.3279 78.9506 40.377C78.7531 40.4754 78.5556 40.5738 78.358 40.6229C78.3086 40.6229 78.2593 40.6721 78.2099 40.6721C78.2099 40.7213 78.2099 40.8197 78.1605 40.8689C78.1605 40.918 78.1605 41.0164 78.1111 41.0656L77.963 41.9016C78.358 41.9016 78.358 42 78.3086 42C78.358 42 78.3086 42 78.3086 42Z" fill="#95A5AF"/>
<path d="M230 38.3018L225.55 44H214.4C210.75 44 207.7 43.0586 205.25 41.1757V24.6261C207.7 22.8919 210.75 22 214.4 22H230L225.55 27.6982H214.4C212.5 27.6982 210.95 28.1937 209.7 29.2342C208.45 30.2252 207.85 31.5135 207.85 33.0991C207.85 34.6351 208.45 35.9234 209.7 36.8649C210.95 37.8559 212.5 38.3514 214.4 38.3514H230V38.3018ZM203.5 39.5901C201.8 37.7072 201 35.4279 201 32.8018C201 30.1757 201.85 27.9459 203.5 26.1126V39.5901Z" fill="#0055A4"/>
<path d="M205 44H198V22H205V44Z" fill="#0055A4"/>
<path d="M195.95 41.047C195.95 43.0157 195.056 44 193.217 44C191.924 44 190.682 43.5078 189.489 42.5235L176.567 31.7942V43.8031H171V22.3937C171.447 22.0984 172.044 22 172.74 22C173.982 22 175.125 22.443 176.219 23.3289L189.141 34.0582V22H196V41.047H195.95Z" fill="#0055A4"/>
<path d="M171 44H164.15V35.7748H150.95V44H144.95L149 38.8468L150.05 37.4595H144.05V28.5405H144.3L149.35 22H150.9V30.0766H164.1V22H170.95V44H171ZM144 42.4144V39.1937H146.5L144 42.4144ZM144 26.0631V22.7928H146.55L144 26.0631Z" fill="#0055A4"/>
<path d="M148 38.3018L143.55 44H132.4C128.7 44 125.6 43.009 123.1 41.027L124.65 39.045L126.15 37.1126H119.9C119.3 35.8243 119 34.3378 119 32.8018C119 31.464 119.2 30.2252 119.65 29.0856L119.8 28.8874H119.85L123.1 24.7252C125.55 22.8919 128.65 22 132.4 22H148L143.55 27.6982H132.4C130.5 27.6982 128.95 28.1937 127.7 29.2342C126.45 30.2252 125.85 31.5135 125.85 33.0991C125.85 34.6351 126.45 35.9234 127.7 36.8649C128.95 37.8559 130.5 38.3514 132.4 38.3514H148V38.3018Z" fill="#0055A4"/>
<path d="M125 37.5806L120.527 42.9516L100 43V28.2419H102.038L106.759 22.4839L107.157 22H124.006L119.583 27.4677H106.859V29.6935H117.744L113.32 35.0645H106.859V37.5806H125ZM100 26.6452V22.8226H104.324L101.193 26.6452H100Z" fill="#0055A4"/>
<path d="M106 22L101.575 27.6982H94.9613V44H88.0994V27.6982H79L83.4254 22H106Z" fill="#0055A4"/>
<path d="M78 22L65.0017 36.7162V44H58.2071V36.6667L49 26.6081L54.2683 22.8423L61.7029 30.9189L69.3345 22H78Z" fill="#0055A4"/>
<path d="M54 44H43.5187L32.8877 36.6171V44H26V43.6036C26.4991 43.3559 26.9483 43.1081 27.3476 42.7613C29.4938 41.2252 30.5419 39.2432 30.5419 36.7658C30.5419 35.527 30.2923 34.3874 29.7433 33.3964C29.1943 32.4054 28.4456 31.5135 27.3975 30.7207C26.9483 30.4234 26.4991 30.1261 26 29.8784V27.2027L29.6435 22.4955L30.0428 22H32.8877V29.5315L43.5187 22H53.8503L38.0285 33.1486L54 44ZM26 41.6216V31.8108C26.1497 31.9099 26.2496 31.9595 26.3993 32.0586C27.2478 32.6532 27.8467 33.3468 28.246 34.1396C28.6453 34.9324 28.8449 35.7748 28.8449 36.7658C28.8449 38.6486 27.9964 40.1847 26.3494 41.3739C26.2496 41.473 26.0998 41.5721 26 41.6216ZM26 24.4279V22.7928H27.2478L26 24.4279Z" fill="#0055A4"/>
<path d="M29.2977 22L24.8328 27.6982H9.08027C8.22743 27.6982 7.82609 27.9955 7.82609 28.5901C7.82609 29.1847 8.22743 29.482 9.08027 29.482H20.4181C23.1271 29.482 25.3846 30.1261 27.1906 31.4144C29.0468 32.8018 30 34.5856 30 36.7658C30 38.9459 29.0468 40.7297 27.1405 42.0676C25.3846 43.3559 23.1271 44 20.4181 44H0L4.46488 38.3018H20.4181C21.1204 38.3018 21.7726 38.2027 22.3746 37.955C23.1271 37.6577 23.4783 37.2117 23.4783 36.7162C23.4783 36.1712 23.1271 35.7252 22.3746 35.4775C21.8227 35.2793 21.1706 35.1802 20.4181 35.1802H9.08027C6.57191 35.1802 4.46488 34.5856 2.7592 33.4459C0.953177 32.2072 0.0501672 30.6216 0.0501672 28.5901C0.0501672 26.5586 0.953177 24.9234 2.7592 23.6847C4.46488 22.545 6.52174 22 9.08027 22H29.2977Z" fill="#0055A4"/>
<path fill-rule="evenodd" clip-rule="evenodd" d="M159.005 1.97872C159.057 2.17084 159.108 2.26691 159.262 2.411C159.468 2.65116 159.673 2.84329 159.878 3.03541C159.981 3.08345 160.032 3.17951 160.135 3.22754C160.546 3.4677 163.062 4.47636 163.114 4.81258C163.216 5.2929 163.062 5.77322 163.114 5.96534C163.011 5.96534 162.959 5.91731 162.857 5.86928C162.805 5.86928 162.805 5.82125 162.805 5.82125C162.6 5.72519 162.087 5.34093 161.881 5.82125C161.727 6.10944 161.83 6.30156 162.087 6.49369L162.241 6.58975C162.395 6.68582 162.549 6.73385 162.754 6.78188C162.805 6.78188 162.805 6.78188 162.857 6.82991C163.165 6.92598 163.114 6.92598 163.114 7.31023L163.062 8.99134C163.062 9.0874 163.062 9.13543 163.062 9.23149C163.062 9.27953 163.011 9.90394 163.062 9.90394C163.114 9.95197 163.627 10 163.678 10C164.038 9.51968 165.014 7.88661 165.116 7.45432C165.116 7.35826 165.065 7.07007 165.219 7.02204C165.322 6.97401 165.373 7.02204 165.424 7.02204C165.476 7.02204 165.578 6.97401 165.681 6.97401C165.681 6.92598 165.63 6.82991 165.578 6.82991C165.63 6.78188 165.681 6.73385 165.732 6.68582C166.092 6.3496 166.143 6.2055 166.297 6.25353L166.811 6.3496C167.735 6.54172 168.608 6.97401 169.635 7.21417C169.892 7.2622 169.841 7.40629 169.841 7.83858C169.841 7.98267 169.841 8.70315 169.841 8.79921C169.892 8.9433 170.097 8.99134 170.251 8.9433C170.405 8.89527 171.022 7.88661 171.124 7.79055C171.124 7.74251 171.124 7.74251 171.176 7.74251C171.176 7.74251 171.176 7.69448 171.227 7.69448C171.33 7.50236 171.432 7.50236 171.586 7.50236C171.741 7.50236 171.946 7.45432 172.049 7.35826C172.049 7.31023 171.997 7.2622 171.997 7.2622C171.946 7.16613 171.843 7.02204 171.792 6.97401C171.843 6.92598 171.895 6.92598 171.946 6.87794C172.357 6.58975 172.768 6.30156 173.178 5.96534C173.435 5.77322 173.743 5.437 174 5.34093C173.641 5.00471 173.384 5.19684 173.024 5.34093C172.768 5.437 172.459 5.53306 172.151 5.67715L171.741 5.82125L171.895 5.19684C171.895 5.10077 171.946 5.00471 171.946 4.90865C171.895 4.76455 171.535 4.62046 171.381 4.62046C171.278 4.66849 170.559 5.10077 170.457 5.19684C170.354 5.24487 170.097 5.437 169.995 5.48503C169.892 5.53306 169.841 5.53306 169.738 5.48503C169.43 5.38896 168.968 5.14881 168.608 5.00471L167.786 4.62046L168.146 4.2362L168.095 4.14014C168.095 4.09211 168.197 4.04408 168.3 3.94801L167.992 3.75589L172.819 0.24958C172.768 0.105485 172.408 -0.0386101 172.254 0.00942152C171.946 0.0574532 171.741 0.24958 171.432 0.345643L170.714 0.681864C170.251 0.922022 169.789 1.11415 169.327 1.35431C169.224 1.40234 169.122 1.45037 168.968 1.4984C168.351 1.78659 167.786 2.02675 167.17 2.31494C167.068 2.36297 166.914 2.411 166.811 2.45903C166.657 2.50707 166.503 2.60313 166.349 2.65116C166.246 2.69919 165.989 2.50707 165.886 2.45903C165.681 2.36297 165.424 2.21888 165.168 2.21888C165.065 2.21888 165.014 2.26691 164.911 2.31494C164.757 2.50707 164.705 2.79526 164.859 2.98738C164.911 3.03541 164.962 3.08345 165.014 3.08345C164.962 3.08345 164.859 3.13148 164.757 3.17951C164.603 3.22754 164.141 2.98738 163.987 2.89132C163.935 2.89132 163.884 2.84329 163.832 2.84329C163.011 2.45903 161.984 1.93069 161.111 1.69053C160.905 1.6425 160.7 1.54643 160.443 1.4984C160.289 1.4984 158.903 1.4984 159.005 1.97872Z" fill="#3DC0F0"/>
<path fill-rule="evenodd" clip-rule="evenodd" d="M159.005 2.1019C159.054 2.25497 159.102 2.35701 159.15 2.51008C159.538 2.35701 160.216 2.35701 160.361 2.35701C160.555 2.40803 160.748 2.45906 160.991 2.5611C161.765 2.86723 162.734 3.42847 163.557 3.78562C163.606 3.78562 163.654 3.83665 163.702 3.83665C163.896 3.93869 164.283 4.14278 164.429 4.14278C164.526 4.14278 164.574 4.09175 164.671 4.04073C164.622 3.98971 164.574 3.98971 164.526 3.93869C164.429 3.78562 164.429 3.58154 164.477 3.42847C164.283 3.42847 163.944 3.22438 163.799 3.12234C163.751 3.12234 163.702 3.07132 163.654 3.07132C162.879 2.66314 161.911 2.1019 161.087 1.84679C160.894 1.79577 160.7 1.69373 160.458 1.64271C160.216 1.59169 158.908 1.59168 159.005 2.1019ZM162.831 6.28569C162.782 6.28569 162.685 6.23467 162.637 6.18365C162.589 6.18365 162.589 6.13263 162.589 6.13263C162.395 6.03058 161.911 5.62241 161.717 6.13263C161.62 6.38774 161.62 6.5408 161.765 6.69387C162.007 6.43876 162.395 6.74489 162.54 6.84693C162.589 6.84693 162.589 6.89796 162.589 6.89796C162.637 6.94898 162.734 7 162.831 7C162.782 6.84693 162.831 6.59183 162.831 6.28569ZM172.37 6.13263C172.564 5.92854 172.855 5.67343 173 5.57139C172.661 5.21424 172.419 5.41832 172.08 5.57139C171.838 5.67343 171.547 5.77548 171.257 5.92854L170.966 6.03058C170.966 6.08161 170.966 6.08161 170.966 6.13263L170.821 6.79591L171.208 6.64285C171.45 6.5408 171.741 6.38774 172.031 6.28569C172.128 6.23467 172.274 6.18365 172.37 6.13263ZM170.966 5.77548L171.063 5.41832C171.063 5.31628 171.111 5.21424 171.111 5.11219C171.063 4.95913 170.724 4.80606 170.579 4.80606C170.482 4.85708 169.804 5.31628 169.707 5.41832C169.61 5.46935 169.368 5.67343 169.271 5.72445C169.174 5.77548 169.126 5.77548 169.029 5.72445C168.739 5.62241 168.303 5.3673 167.964 5.21424L167.48 4.95913C167.431 5.01015 167.383 5.06117 167.383 5.06117L167.431 5.16321L167.092 5.57139L167.867 5.97956C168.157 6.13263 168.642 6.38774 168.932 6.48978C169.029 6.5408 169.078 6.5408 169.174 6.48978C169.271 6.43876 169.513 6.23467 169.61 6.18365C169.707 6.13263 170.385 5.62241 170.482 5.57139C170.579 5.52037 170.869 5.62241 170.966 5.77548ZM171.45 0.724314L171.983 0.265117C171.935 0.112052 171.596 -0.0410138 171.45 0.0100081C171.16 0.0610299 170.966 0.265117 170.676 0.367161L169.998 0.724314C169.562 0.979423 169.126 1.18351 168.69 1.43862C168.593 1.48964 168.496 1.54066 168.351 1.59168C167.77 1.89782 167.237 2.15293 166.656 2.45906C166.559 2.51008 166.414 2.5611 166.317 2.61212C166.172 2.66314 166.027 2.76519 165.882 2.81621C165.785 2.86723 165.543 2.66314 165.446 2.61212C165.252 2.51008 165.01 2.35701 164.768 2.35701C164.671 2.35701 164.622 2.40803 164.526 2.45906C164.38 2.66314 164.332 2.96927 164.477 3.17336C164.526 3.12234 164.574 3.07132 164.671 3.07132C164.913 3.07132 165.155 3.22438 165.349 3.32643C165.446 3.37745 165.688 3.58154 165.785 3.53051C165.93 3.47949 166.075 3.42847 166.22 3.32643C166.317 3.27541 166.463 3.22438 166.559 3.17336C167.141 2.91825 167.673 2.61212 168.254 2.30599C168.351 2.25497 168.496 2.20395 168.593 2.15293C169.029 1.89782 169.465 1.69373 169.901 1.43862L170.579 1.08147C170.821 0.979423 171.063 0.775336 171.354 0.724314C171.402 0.724314 171.45 0.724314 171.45 0.724314Z" fill="#C5E7FB"/>
<path fill-rule="evenodd" clip-rule="evenodd" d="M198.43 44C205.533 37.1838 203.542 29.5656 198 23V28.2625C201.874 34.1766 201.605 39.389 198 43.3986V44H198.43Z" fill="#009FE3"/>
<path fill-rule="evenodd" clip-rule="evenodd" d="M110 22C112.136 23.8584 114.902 26.2478 117.086 27.9469C117.766 28 118.3 27.9469 118.979 28L119.999 26.6726C120.096 26.5664 114.611 22.531 114.174 22.1593L110 22Z" fill="#009FE3"/>
</svg>
